<!-- <svg width="44" height="63" viewBox="0 0 44 63" fill="none" xmlns="http://www.w3.org/2000/svg">
<path d="M22 3H12.5C7.25331 3 3 7.25331 3 12.5C3 17.7467 7.25331 22 12.5 22M22 3V22M22 3H31.5C36.7469 3 41 7.25331 41 12.5C41 17.7467 36.7469 22 31.5 22M12.5 22H22M12.5 22C7.25331 22 3 26.2532 3 31.5C3 36.7469 7.25331 41 12.5 41M22 22H31.5M22 22V41M31.5 22C36.7469 22 41 26.2532 41 31.5C41 36.7469 36.7469 41 31.5 41C26.2532 41 22 36.7469 22 31.5C22 26.2532 26.2532 22 31.5 22ZM22 41H12.5M22 41V50.5C22 55.7469 17.7469 60 12.5 60C7.25331 60 3 55.7469 3 50.5C3 45.2532 7.25331 41 12.5 41" stroke="white" stroke-width="5" stroke-linecap="round" stroke-linejoin="round"/>
</svg> -->


<svg xmlns="http://www.w3.org/2000/svg" x="0px" y="0" width="80" height="80" viewBox="0,0,260,270"
style="fill:#FFFFFF;">
<g fill="#ffffff" fill-rule="nonzero" stroke="none" stroke-width="1" stroke-linecap="butt" stroke-linejoin="miter" stroke-miterlimit="10" stroke-dasharray="" stroke-dashoffset="0" font-family="none" font-weight="none" font-size="none" text-anchor="none" style="mix-blend-mode: normal"><g transform="scale(5.12,5.12)"><path d="M26.18555,3.97266c-0.3579,-0.00176 -0.76263,0.00227 -1.1875,0.00586c-0.84974,0.00717 -1.71266,0.02148 -1.99805,0.02148c-11.58641,0 -21,9.41359 -21,21c0,11.58641 9.41359,21 21,21h4c11.58614,0 21,-9.41387 21,-21c0,-11.58613 -9.41386,-21 -21,-21c-0.00325,-0.00025 -0.00844,0.00024 -0.01172,0c-0.22478,-0.01674 -0.48572,-0.02579 -0.80273,-0.02734zM27,6c8.76221,0 16.04964,5.94317 18.25195,14h-36.50391c2.20231,-8.05683 9.48975,-14 18.25195,-14zM15.02539,7.76758c-5.4486,3.79622 -9.02539,10.0977 -9.02539,17.23242c0,7.13472 3.57679,13.43621 9.02539,17.23242c-6.5084,-3.01251 -11.02539,-9.57998 -11.02539,-17.23242c0,-7.65245 4.51699,-14.21991 11.02539,-17.23242zM8.30078,22h37.39844c0.10442,0.65565 0.16547,1.32364 0.20117,2h-37.80078c0.0357,-0.67636 0.09676,-1.34435 0.20117,-2zM8.09961,26h37.80078c-0.0357,0.67636 -0.09676,1.34435 -0.20117,2h-37.39844c-0.10441,-0.65565 -0.16547,-1.32364 -0.20117,-2zM8.74805,30h36.50391c-2.20231,8.05683 -9.48974,14 -18.25195,14c-8.76221,0 -16.04964,-5.94317 -18.25195,-14z"></path></g></g>
</svg>
