<!-- <svg width="64" height="64" viewBox="0 0 64 64" fill="none" xmlns="http://www.w3.org/2000/svg">
<path fill-rule="evenodd" clip-rule="evenodd" d="M40.7808 59.0656C39.2384 59.0656 37.9904 57.8114 37.9904 56.2609C37.9904 54.7105 39.2384 53.4594 40.7808 53.4594C42.3232 53.4594 43.5712 54.7105 43.5712 56.2609C43.5712 57.8114 42.3232 59.0656 40.7808 59.0656ZM32.2304 64C48.48 64 47.4656 56.9172 47.4656 56.9172L47.4464 49.5797H31.9424V47.3766H53.6032C53.6032 47.3766 64 48.5636 64 32.0844C64 15.6051 54.928 16.1859 54.928 16.1859H49.5104V23.8359C49.5104 23.8359 49.8016 32.9547 40.5824 32.9547H25.2032C25.2032 32.9547 16.5632 32.8176 16.5632 41.3516V55.4594C16.5632 55.4594 15.2512 64 32.2304 64ZM23.2224 4.93438C24.7648 4.93438 26.0096 6.1886 26.0096 7.73906C26.0096 9.28953 24.7648 10.5406 23.2224 10.5406C21.68 10.5406 20.432 9.28953 20.432 7.73906C20.432 6.1886 21.68 4.93438 23.2224 4.93438ZM31.7696 0C15.5232 0 16.5376 7.08281 16.5376 7.08281L16.5568 14.4203H32.0608V16.6234H10.3968C10.3968 16.6234 0 15.4364 0 31.9156C0 48.3949 9.0752 47.8141 9.0752 47.8141H14.4896V40.1641C14.4896 40.1641 14.1984 31.0453 23.4208 31.0453H38.7968C38.7968 31.0453 47.4368 31.1824 47.4368 22.6484V8.54063C47.4368 8.54063 48.7488 0 31.7696 0Z" fill="white"/>
</svg> -->
<svg xmlns="http://www.w3.org/2000/svg" x="0px" y="0px" width="80" height="80" viewBox="0 0 55 55"
style="fill:#FFFFFF;">
<path d="M 28.1875 -0.00390625 C 30.9375 6.359375 18.320313 10.289063 17.152344 15.59375 C 16.074219 20.460938 24.640625 26.121094 24.644531 26.121094 C 23.34375 24.105469 22.402344 22.441406 21.097656 19.304688 C 18.890625 14 34.53125 9.203125 28.1875 -0.00390625 Z M 36.550781 8.8125 C 36.550781 8.8125 25.503906 9.511719 24.941406 16.582031 C 24.691406 19.730469 27.84375 21.410156 27.9375 23.703125 C 28.007813 25.570313 26.050781 27.128906 26.050781 27.128906 C 26.050781 27.128906 29.601563 26.460938 30.714844 23.605469 C 31.945313 20.4375 28.328125 18.273438 28.691406 15.738281 C 29.042969 13.3125 36.550781 8.8125 36.550781 8.8125 Z M 39.230469 25.144531 C 38.074219 25.09375 36.789063 25.476563 35.625 26.3125 C 37.90625 25.824219 39.835938 27.21875 39.835938 28.828125 C 39.835938 32.453125 34.597656 35.878906 34.597656 35.878906 C 34.597656 35.878906 42.707031 34.953125 42.707031 29 C 42.707031 26.539063 41.152344 25.234375 39.230469 25.144531 Z M 19.183594 25.152344 C 19.183594 25.152344 9.0625 25.015625 9.0625 27.878906 C 9.0625 30.871094 22.316406 31.082031 31.78125 29.238281 C 31.78125 29.238281 34.308594 27.507813 34.980469 26.863281 C 28.777344 28.128906 14.621094 28.296875 14.621094 27.203125 C 14.621094 26.191406 19.183594 25.152344 19.183594 25.152344 Z M 16.738281 30.722656 C 15.1875 30.722656 12.871094 31.921875 12.871094 33.078125 C 12.871094 35.402344 24.5625 37.195313 33.21875 33.796875 L 30.222656 31.960938 C 24.355469 33.839844 13.539063 33.238281 16.738281 30.722656 Z M 18.179688 35.921875 C 16.050781 35.921875 14.671875 37.234375 14.671875 38.203125 C 14.671875 41.1875 27.378906 41.488281 32.414063 38.453125 L 29.214844 36.417969 C 25.453125 38.007813 16.007813 38.222656 18.179688 35.921875 Z M 11.089844 38.625 C 7.621094 38.554688 5.367188 40.113281 5.367188 41.40625 C 5.363281 48.28125 40.890625 47.949219 40.890625 40.921875 C 40.890625 39.757813 39.515625 39.203125 39.019531 38.9375 C 41.921875 45.65625 9.96875 45.136719 9.96875 41.171875 C 9.96875 40.269531 12.3125 39.382813 14.492188 39.808594 L 12.644531 38.757813 C 12.101563 38.675781 11.582031 38.632813 11.089844 38.625 Z M 44.636719 43.25 C 39.234375 48.367188 25.546875 50.234375 11.78125 47.074219 C 25.542969 52.703125 44.566406 49.535156 44.636719 43.25 Z"></path>
</svg>


